<svg width="24" height="24" viewBox="0 0 24 24" fill="none" xmlns="http://www.w3.org/2000/svg">
<path d="M10.9995 17.0002H12.9995V13.0002H16.9995V11.0002H12.9995V7.00024H10.9995V11.0002H6.99951V13.0002H10.9995V17.0002ZM11.9995 22.0002C10.6162 22.0002 9.31618 21.7376 8.09951 21.2122C6.88285 20.6876 5.82451 19.9752 4.92451 19.0752C4.02451 18.1752 3.31218 17.1169 2.78751 15.9002C2.26218 14.6836 1.99951 13.3836 1.99951 12.0002C1.99951 10.6169 2.26218 9.31691 2.78751 8.10024C3.31218 6.88358 4.02451 5.82524 4.92451 4.92524C5.82451 4.02524 6.88285 3.31258 8.09951 2.78724C9.31618 2.26258 10.6162 2.00024 11.9995 2.00024C13.3828 2.00024 14.6828 2.26258 15.8995 2.78724C17.1162 3.31258 18.1745 4.02524 19.0745 4.92524C19.9745 5.82524 20.6868 6.88358 21.2115 8.10024C21.7368 9.31691 21.9995 10.6169 21.9995 12.0002C21.9995 13.3836 21.7368 14.6836 21.2115 15.9002C20.6868 17.1169 19.9745 18.1752 19.0745 19.0752C18.1745 19.9752 17.1162 20.6876 15.8995 21.2122C14.6828 21.7376 13.3828 22.0002 11.9995 22.0002ZM11.9995 20.0002C14.2328 20.0002 16.1245 19.2252 17.6745 17.6752C19.2245 16.1252 19.9995 14.2336 19.9995 12.0002C19.9995 9.76691 19.2245 7.87524 17.6745 6.32524C16.1245 4.77524 14.2328 4.00024 11.9995 4.00024C9.76618 4.00024 7.87451 4.77524 6.32451 6.32524C4.77451 7.87524 3.99951 9.76691 3.99951 12.0002C3.99951 14.2336 4.77451 16.1252 6.32451 17.6752C7.87451 19.2252 9.76618 20.0002 11.9995 20.0002Z" fill="#A90836"/>
</svg>
